
<svg id="Layer_2" xmlns="http://www.w3.org/2000/svg" xmlns:xlink="http://www.w3.org/1999/xlink" viewBox="0 0 522.720443194560175 377.079399355548048"><defs>
<style>.cls-1{fill:#f9a11b;}.cls-2{fill:url(#linear-gradient-2);}.cls-3,.cls-4,.cls-5,.cls-6,.cls-7,.cls-8,.cls-9{fill:#fff;}.cls-4{opacity:.959999978542328;}.cls-4,.cls-10,.cls-6,.cls-7,.cls-11,.cls-12,.cls-13,.cls-8,.cls-14,.cls-9{isolation:isolate;}.cls-15{fill:#e9f1fa;}.cls-5{fill-rule:evenodd;}.cls-16{fill:#fce9cb;}.cls-17{fill:#09b256;}.cls-10{opacity:.330000013113022;}.cls-10,.cls-12,.cls-14{fill:#010101;}.cls-18{fill:url(#linear-gradient-6);}.cls-19{fill:#b3742a;}.cls-20{letter-spacing:-.021988895663846em;}.cls-21{fill:#9a9797;}.cls-22{fill:url(#linear-gradient-11);}.cls-6{opacity:.5;}.cls-23{fill:url(#linear-gradient-10);}.cls-24,.cls-11{fill:#1a4d88;}.cls-25,.cls-11,.cls-14{opacity:.150000005960464;}.cls-25,.cls-13,.cls-26,.cls-27,.cls-28{fill:none;}.cls-7{font-size:16.123950958251953px;}.cls-7,.cls-9{font-family:Outfit-SemiBold, Outfit;font-weight:600;}.cls-12{opacity:.109999999403954;}.cls-29{fill:#eaeaea;}.cls-8{opacity:.949999988079071;}.cls-30{fill:#f7c778;}.cls-31{fill:url(#linear-gradient-5);}.cls-26{opacity:.800000011920929;}.cls-32{fill:url(#linear-gradient-7);}.cls-33{letter-spacing:-.008004872864253em;}.cls-34{fill:#f1b359;}.cls-35{fill:url(#linear-gradient-9);}.cls-36{fill:url(#linear-gradient-3);}.cls-37{letter-spacing:-.027981471549261em;}.cls-38{letter-spacing:-.052995525656402em;}.cls-39{fill:url(#linear-gradient);}.cls-40{fill:#fcd593;}.cls-41{letter-spacing:-.012052625191132em;}.cls-28{stroke:#fff;stroke-miterlimit:10;stroke-width:4px;}.cls-42{fill:#eaae46;}.cls-9{font-size:14.944510459899902px;}.cls-43{letter-spacing:-.014051301730365em;}.cls-44{fill:url(#linear-gradient-4);}.cls-45{fill:#e0e1e0;}.cls-46{fill:url(#linear-gradient-8);}
</style>
<linearGradient id="linear-gradient" x1="-599.569130813098127" y1="593.072758747785883" x2="-599.942743550456044" y2="593.610013893111841" gradientTransform="translate(-306940.503016244445462 774.338369697240296) rotate(90) scale(1.14400005340576 -517.736999511718977)" gradientUnits="userSpaceOnUse"><stop offset="0" stop-color="#fff" stop-opacity=".250999987125397"/><stop offset="1" stop-color="#fff"/></linearGradient>
<linearGradient id="linear-gradient-2" x1="-609.07026852929539" y1="593.072758747787702" x2="-609.443881266653307" y2="593.61001389311366" gradientTransform="translate(-306940.503016244445462 817.338369697240296) rotate(90) scale(1.14400005340576 -517.736999511718977)" xlink:href="#linear-gradient"/>
<linearGradient id="linear-gradient-3" x1="-618.571406245490834" y1="593.072758747787702" x2="-618.94501898284841" y2="593.610013893113205" gradientTransform="translate(-306940.503016244445462 860.338369697240296) rotate(90) scale(1.14400005340576 -517.736999511718977)" xlink:href="#linear-gradient"/>
<linearGradient id="linear-gradient-4" x1="-628.072543961688098" y1="593.072758747787702" x2="-628.446156699045559" y2="593.610013893113091" gradientTransform="translate(-306940.503016244445462 903.338369697240296) rotate(90) scale(1.14400005340576 -517.736999511718977)" xlink:href="#linear-gradient"/>
<linearGradient id="linear-gradient-5" x1="-647.074819394082624" x2="-647.448432131440768" y2="593.610013893112182" gradientTransform="translate(-306940.503016244445462 989.338369697240296) rotate(90) scale(1.14400005340576 -517.736999511718977)" xlink:href="#linear-gradient"/>
<linearGradient id="linear-gradient-6" x1="-656.575957110278978" y1="593.072758747787702" x2="-656.949569847637008" y2="593.610013893113887" gradientTransform="translate(-306940.503016244445462 1032.338369697240296) rotate(90) scale(1.14400005340576 -517.736999511718977)" xlink:href="#linear-gradient"/>
<linearGradient id="linear-gradient-7" x1="-666.077094826476241" y1="593.072758747787702" x2="-666.450707563834271" y2="593.610013893113887" gradientTransform="translate(-306940.503016244445462 1075.338369697240296) rotate(90) scale(1.14400005340576 -517.736999511718977)" xlink:href="#linear-gradient"/>
<linearGradient id="linear-gradient-8" x1="227.368373333963063" y1="84.263044792125584" x2="345.396783707954626" y2="-21.071513249278794" gradientUnits="userSpaceOnUse"><stop offset="0" stop-color="#1a4d88"/><stop offset="1" stop-color="#161749"/></linearGradient>
<linearGradient id="linear-gradient-9" x1="-56.143652026550626" y1="597.12291570979778" x2="-55.364059319698633" y2="596.427167516897839" gradientTransform="translate(13292.566601977938262 53307.575010480330093) scale(230.671005249023011 -88.75299835205081)" xlink:href="#linear-gradient-8"/>
<linearGradient id="linear-gradient-10" x1="-57.573739017990192" y1="600.627821129427502" x2="-56.851171934333721" y2="599.982965503811215" gradientTransform="translate(11806.817250890377181 58404.711505966930417) scale(205 -97)" xlink:href="#linear-gradient-8"/>
<linearGradient id="linear-gradient-11" x1="347.536103293457018" y1="245.771191861437728" x2="260.399025089495979" y2="145.94422858365229" gradientUnits="userSpaceOnUse"><stop offset="0" stop-color="#1a4d88"/><stop offset=".135000009536743" stop-color="#164781"/><stop offset="1" stop-color="#161749"/></linearGradient></defs><g id="Arrow">

<path class="cls-3" d="m497.280178802789123,32.78564453125H76.274624603570373c-3.714111328125,0-6.72503662109375,3.01092529296875-6.72503662109375,6.72503662109375v15.17388916015625h434.45562744140625v-15.17388916015625c0-3.714111328125-3.01092529296875-6.72503662109375-6.72503662109375-6.72503662109375Zm-406.18731689453125,10.9490966796875c0,1.6651611328125-1.34991455078125,3.01507568359375-3.01507568359375,3.01507568359375s-3.0150146484375-1.34991455078125-3.0150146484375-3.01507568359375,1.349853515625-3.01507568359375,3.0150146484375-3.01507568359375c1.66351318359375-.00164794921875,3.013427734375,1.3455810546875,3.01507568359375,3.00909423828125v.0059814453125Zm11.71722412109375,0c0,1.6651611328125-1.349853515625,3.01507568359375-3.0150146484375,3.01507568359375-1.66522216796875,0-3.01507568359375-1.34991455078125-3.01507568359375-3.01507568359375s1.349853515625-3.01507568359375,3.01507568359375-3.01507568359375c1.66351318359375-.00164794921875,3.01336669921875,1.3455810546875,3.0150146484375,3.00909423828125v.0059814453125Zm11.71875,0c0,1.6651611328125-1.34991455078125,3.01507568359375-3.01507568359375,3.01507568359375s-3.0150146484375-1.34991455078125-3.0150146484375-3.01507568359375,1.349853515625-3.01507568359375,3.0150146484375-3.01507568359375c1.66351318359375-.00164794921875,3.013427734375,1.3455810546875,3.01507568359375,3.00909423828125v.0059814453125Z"/><rect id="Rectangle_3601" class="cls-3" x="69.501586279489857" y="58.38614087239057" width=".747225533610617" height="279.462349570358128"/><rect class="cls-27" x="71.743262880321709" y="58.38614087239057" width="385.374089407198881" height="280.994152792854948"/><rect id="Rectangle_3602" class="cls-39" x="69.549975335346062" y="87.776768623593853" width="386.866305730089152" height=".854826050356678"/><rect id="Rectangle_3602-2" class="cls-2" x="69.549975335346062" y="119.907466568849486" width="386.866305730089152" height=".854826050356678"/><rect id="Rectangle_3602-3" class="cls-36" x="69.549975335346062" y="152.038164514105119" width="386.866305730089152" height=".854826050355769"/><rect id="Rectangle_3602-4" class="cls-44" x="69.549975335346062" y="184.168862459359843" width="386.866305730089152" height=".854826050355769"/><rect id="Rectangle_3602-5" class="cls-31" x="69.549975335346062" y="248.430258349869291" width="386.866305730089152" height=".854826050357588"/><rect id="Rectangle_3602-6" class="cls-18" x="69.549975335346062" y="280.560956295125834" width="386.866305730089152" height=".854826050355769"/><rect id="Rectangle_3602-7" class="cls-32" x="69.549975335346062" y="312.691654240380558" width="386.866305730089152" height=".854826050355769"/>

<path id="Rectangle_3312" class="cls-28" d="m77.022002636316756,35.235284154294277h419.511086085917668c4.126797463030016,0,7.472255336106173,3.345442551964879,7.472255336106173,7.472255336105263v289.275659219561931c0,4.126820266543291-3.345457873076157,7.472255336106173-7.472255336106173,7.472255336106173H69.549747300210583V42.70753949039954c0-4.126812784140384,3.345442551964879-7.472255336105263,7.472255336106173-7.472255336105263Z"/>

<path class="cls-3" d="m504.005184906304748,88.631560377635651v-.85479736328125h-42.28338623046875v-32.328369140625h-.74725341796875v32.328369140625h-31.31024169921875v-29.390625h-.74725341796875v29.390625h-26.90008544921875v-29.390625h-.74725341796875v29.390625h-26.90008544921875v-29.390625h-.74725341796875v29.390625h-26.90008544921875v-29.390625h-.74725341796875v29.390625h-26.900146484375v-29.390625h-.7471923828125v29.390625h-26.900146484375v-29.390625h-.7471923828125v29.390625h-26.900146484375v-29.390625h-.7471923828125v29.390625h-26.900146484375v-29.390625h-.7471923828125v29.390625h-26.900146484375v-29.390625h-.7471923828125v29.390625h-26.900146484375v-29.390625h-.74725341796875v29.390625h-26.90008544921875v-29.390625h-.74725341796875v29.390625h-26.90008544921875v-29.390625h-.74725341796875v29.390625h-26.90008544921875v-29.390625h-.74725341796875v29.390625h-26.897705078125v.85479736328125h26.897705078125v31.27587890625h-26.897705078125v.8548583984375h26.897705078125v31.27587890625h-26.897705078125v.85479736328125h26.897705078125v31.27587890625h-26.897705078125v.85479736328125h26.897705078125v31.22332763671875h-27.59930419921875v.95947265625h27.59930419921875v31.22381591796875h-26.897705078125v.85479736328125h26.897705078125v31.27587890625h-26.897705078125v.85479736328125h26.897705078125v31.27587890625h-26.897705078125v.8548583984375h26.897705078125v24.302001953125h.74725341796875v-24.302001953125h26.90008544921875v24.302001953125h.74725341796875v-24.302001953125h26.90008544921875v24.302001953125h.74725341796875v-24.302001953125h26.90008544921875v24.302001953125h.74725341796875v-24.302001953125h26.900146484375v24.302001953125h.7471923828125v-24.302001953125h26.900146484375v24.302001953125h.7471923828125v-24.302001953125h26.900146484375v24.302001953125h.7471923828125v-24.302001953125h26.900146484375v24.302001953125h.7471923828125v-24.302001953125h26.900146484375v24.302001953125h.7471923828125v-24.302001953125h26.900146484375v24.302001953125h.74725341796875v-24.302001953125h26.90008544921875v24.302001953125h.74725341796875v-24.302001953125h26.90008544921875v24.302001953125h.74725341796875v-24.302001953125h26.90008544921875v24.302001953125h.74725341796875v-24.302001953125h31.31024169921875v21.3642578125h.74725341796875v-21.3642578125h42.28338623046875v-.8548583984375h-42.28338623046875v-31.27587890625h42.28338623046875v-.85479736328125h-42.28338623046875v-31.27587890625h42.28338623046875v-.85479736328125h-42.28338623046875v-31.22381591796875h42.28338623046875v-.95947265625h-42.28338623046875v-31.22332763671875h42.28338623046875v-.85479736328125h-42.28338623046875v-31.27587890625h42.28338623046875v-.85479736328125h-42.28338623046875v-31.27587890625h42.28338623046875v-.8548583984375h-42.28338623046875v-31.27587890625h42.28338623046875Zm-75.088134765625,0v31.27587890625h-26.90008544921875v-31.27587890625h26.90008544921875Zm-220.4315185546875,96.39208984375h26.900146484375v31.22332763671875h-26.900146484375v-31.22332763671875Zm-.7471923828125,31.22332763671875h-26.900146484375v-31.22332763671875h26.900146484375v31.22332763671875Zm28.39453125-31.22332763671875h26.900146484375v31.22332763671875h-26.900146484375v-31.22332763671875Zm27.6473388671875,0h26.900146484375v31.22332763671875h-26.900146484375v-31.22332763671875Zm27.6473388671875,0h26.900146484375v31.22332763671875h-26.900146484375v-31.22332763671875Zm27.6473388671875,0h26.900146484375v31.22332763671875h-26.900146484375v-31.22332763671875Zm27.64739990234375,0h26.90008544921875v31.22332763671875h-26.90008544921875v-31.22332763671875Zm0-.85479736328125v-31.27587890625h26.90008544921875v31.27587890625h-26.90008544921875Zm-.74725341796875,0h-26.900146484375v-31.27587890625h26.900146484375v31.27587890625Zm-27.6473388671875,0h-26.900146484375v-31.27587890625h26.900146484375v31.27587890625Zm-27.6473388671875,0h-26.900146484375v-31.27587890625h26.900146484375v31.27587890625Zm-27.6473388671875,0h-26.900146484375v-31.27587890625h26.900146484375v31.27587890625Zm-27.6473388671875,0h-26.900146484375v-31.27587890625h26.900146484375v31.27587890625Zm-27.6473388671875,0h-26.900146484375v-31.27587890625h26.900146484375v31.27587890625Zm-27.64739990234375,0h-26.90008544921875v-31.27587890625h26.90008544921875v31.27587890625Zm0,.85479736328125v31.22332763671875h-26.90008544921875v-31.22332763671875h26.90008544921875Zm0,32.18280029296875v31.22381591796875h-26.90008544921875v-31.22381591796875h26.90008544921875Zm.74725341796875,0h26.900146484375v31.22381591796875h-26.900146484375v-31.22381591796875Zm27.6473388671875,0h26.900146484375v31.22381591796875h-26.900146484375v-31.22381591796875Zm27.6473388671875,0h26.900146484375v31.22381591796875h-26.900146484375v-31.22381591796875Zm27.6473388671875,0h26.900146484375v31.22381591796875h-26.900146484375v-31.22381591796875Zm27.6473388671875,0h26.900146484375v31.22381591796875h-26.900146484375v-31.22381591796875Zm27.6473388671875,0h26.900146484375v31.22381591796875h-26.900146484375v-31.22381591796875Zm27.64739990234375,0h26.90008544921875v31.22381591796875h-26.90008544921875v-31.22381591796875Zm27.6473388671875,0h26.90008544921875v31.22381591796875h-26.90008544921875v-31.22381591796875Zm0-.95947265625v-31.22332763671875h26.90008544921875v31.22332763671875h-26.90008544921875Zm0-32.078125v-31.27587890625h26.90008544921875v31.27587890625h-26.90008544921875Zm0-32.13067626953125v-31.27587890625h26.90008544921875v31.27587890625h-26.90008544921875Zm-.74725341796875,0h-26.90008544921875v-31.27587890625h26.90008544921875v31.27587890625Zm-27.6473388671875,0h-26.900146484375v-31.27587890625h26.900146484375v31.27587890625Zm-27.6473388671875,0h-26.900146484375v-31.27587890625h26.900146484375v31.27587890625Zm-27.6473388671875,0h-26.900146484375v-31.27587890625h26.900146484375v31.27587890625Zm-27.6473388671875,0h-26.900146484375v-31.27587890625h26.900146484375v31.27587890625Zm-27.6473388671875,0h-26.900146484375v-31.27587890625h26.900146484375v31.27587890625Zm-27.6473388671875,0h-26.900146484375v-31.27587890625h26.900146484375v31.27587890625Zm-27.64739990234375,0h-26.90008544921875v-31.27587890625h26.90008544921875v31.27587890625Zm-27.6473388671875,0h-26.90008544921875v-31.27587890625h26.90008544921875v31.27587890625Zm0,.85479736328125v31.27587890625h-26.90008544921875v-31.27587890625h26.90008544921875Zm0,32.13067626953125v31.22332763671875h-26.90008544921875v-31.22332763671875h26.90008544921875Zm0,32.18280029296875v31.22381591796875h-26.90008544921875v-31.22381591796875h26.90008544921875Zm0,32.07861328125v31.27587890625h-26.90008544921875v-31.27587890625h26.90008544921875Zm.74725341796875,0h26.90008544921875v31.27587890625h-26.90008544921875v-31.27587890625Zm27.6473388671875,0h26.900146484375v31.27587890625h-26.900146484375v-31.27587890625Zm27.6473388671875,0h26.900146484375v31.27587890625h-26.900146484375v-31.27587890625Zm27.6473388671875,0h26.900146484375v31.27587890625h-26.900146484375v-31.27587890625Zm27.6473388671875,0h26.900146484375v31.27587890625h-26.900146484375v-31.27587890625Zm27.6473388671875,0h26.900146484375v31.27587890625h-26.900146484375v-31.27587890625Zm27.6473388671875,0h26.900146484375v31.27587890625h-26.900146484375v-31.27587890625Zm27.64739990234375,0h26.90008544921875v31.27587890625h-26.90008544921875v-31.27587890625Zm27.6473388671875,0h26.90008544921875v31.27587890625h-26.90008544921875v-31.27587890625Zm27.6473388671875,0h26.90008544921875v31.27587890625h-26.90008544921875v-31.27587890625Zm0-.85479736328125v-31.22381591796875h26.90008544921875v31.22381591796875h-26.90008544921875Zm0-32.18328857421875v-31.22332763671875h26.90008544921875v31.22332763671875h-26.90008544921875Zm0-32.078125v-31.27587890625h26.90008544921875v31.27587890625h-26.90008544921875Zm0-32.13067626953125v-31.27587890625h26.90008544921875v31.27587890625h-26.90008544921875Zm-.74725341796875-63.4066162109375v31.27587890625h-26.90008544921875v-31.27587890625h26.90008544921875Zm-27.6473388671875,0v31.27587890625h-26.90008544921875v-31.27587890625h26.90008544921875Zm-27.6473388671875,0v31.27587890625h-26.900146484375v-31.27587890625h26.900146484375Zm-27.6473388671875,0v31.27587890625h-26.900146484375v-31.27587890625h26.900146484375Zm-27.6473388671875,0v31.27587890625h-26.900146484375v-31.27587890625h26.900146484375Zm-27.6473388671875,0v31.27587890625h-26.900146484375v-31.27587890625h26.900146484375Zm-27.6473388671875,0v31.27587890625h-26.900146484375v-31.27587890625h26.900146484375Zm-27.6473388671875,0v31.27587890625h-26.900146484375v-31.27587890625h26.900146484375Zm-27.64739990234375,0v31.27587890625h-26.90008544921875v-31.27587890625h26.90008544921875Zm-27.6473388671875,0v31.27587890625h-26.90008544921875v-31.27587890625h26.90008544921875Zm-54.54742431640625,0h26.90008544921875v31.27587890625h-26.90008544921875v-31.27587890625Zm0,32.1307373046875h26.90008544921875v31.27587890625h-26.90008544921875v-31.27587890625Zm0,32.13067626953125h26.90008544921875v31.27587890625h-26.90008544921875v-31.27587890625Zm0,32.13067626953125h26.90008544921875v31.22332763671875h-26.90008544921875v-31.22332763671875Zm0,32.18280029296875h26.90008544921875v31.22381591796875h-26.90008544921875v-31.22381591796875Zm0,32.07861328125h26.90008544921875v31.27587890625h-26.90008544921875v-31.27587890625Zm0,63.40655517578125v-31.27587890625h26.90008544921875v31.27587890625h-26.90008544921875Zm27.6473388671875,0v-31.27587890625h26.90008544921875v31.27587890625h-26.90008544921875Zm27.6473388671875,0v-31.27587890625h26.90008544921875v31.27587890625h-26.90008544921875Zm27.6473388671875,0v-31.27587890625h26.900146484375v31.27587890625h-26.900146484375Zm27.6473388671875,0v-31.27587890625h26.900146484375v31.27587890625h-26.900146484375Zm27.6473388671875,0v-31.27587890625h26.900146484375v31.27587890625h-26.900146484375Zm27.6473388671875,0v-31.27587890625h26.900146484375v31.27587890625h-26.900146484375Zm27.6473388671875,0v-31.27587890625h26.900146484375v31.27587890625h-26.900146484375Zm27.6473388671875,0v-31.27587890625h26.900146484375v31.27587890625h-26.900146484375Zm27.64739990234375,0v-31.27587890625h26.90008544921875v31.27587890625h-26.90008544921875Zm27.6473388671875,0v-31.27587890625h26.90008544921875v31.27587890625h-26.90008544921875Zm27.6473388671875,0v-31.27587890625h26.90008544921875v31.27587890625h-26.90008544921875Zm58.95758056640625,0h-31.31024169921875v-31.27587890625h31.31024169921875v31.27587890625Zm0-32.13067626953125h-31.31024169921875v-31.27587890625h31.31024169921875v31.27587890625Zm0-32.13067626953125h-31.31024169921875v-31.22381591796875h31.31024169921875v31.22381591796875Zm0-32.18328857421875h-31.31024169921875v-31.22332763671875h31.31024169921875v31.22332763671875Zm0-32.078125h-31.31024169921875v-31.27587890625h31.31024169921875v31.27587890625Zm0-32.13067626953125h-31.31024169921875v-31.27587890625h31.31024169921875v31.27587890625Zm0-32.1307373046875h-31.31024169921875v-31.27587890625h31.31024169921875v31.27587890625Z"/>

<path class="cls-16" d="m233.891939254505814,262.642790846385651v76.47027587890625h-31.38348388671875v-76.47027587890625c0-4.53948974609375,3.67999267578125-8.219482421875,8.219482421875-8.219482421875h14.94451904296875c4.53948974609375,0,8.219482421875,3.67999267578125,8.219482421875,8.219482421875Zm-53.052978515625,18.54388427734375h-14.94451904296875c-4.53948974609375,0-8.219482421875,3.67999267578125-8.219482421875,8.219482421875v49.478271484375h31.3834228515625v-49.478271484375c0-4.53948974609375-3.679931640625-8.219482421875-8.21942138671875-8.219482421875Zm88.172607421875-64.4437255859375h-14.94451904296875c-4.53948974609375,0-8.219482421875,3.67999267578125-8.219482421875,8.219482421875v113.9212646484375h31.3834228515625v-113.9212646484375c0-4.53948974609375-3.679931640625-8.219482421875-8.21942138671875-8.219482421875Zm43.33831787109375-35.20477294921875h-14.94451904296875c-4.53948974609375,0-8.219482421875,3.67999267578125-8.219482421875,8.219482421875v149.12677001953125h31.38348388671875v-149.12677001953125c0-4.53948974609375-3.67999267578125-8.219482421875-8.219482421875-8.219482421875Zm88.172607421875-62.2125244140625h-14.94451904296875c-4.53948974609375,0-8.219482421875,3.67999267578125-8.219482421875,8.219482421875v211.33856201171875h31.38348388671875V127.545134596385651c0-4.53948974609375-3.67999267578125-8.219482421875-8.219482421875-8.219482421875Zm-44.0863037109375,29.8890380859375h-14.94451904296875c-4.53948974609375,0-8.219482421875,3.67999267578125-8.219482421875,8.219482421875v181.44952392578125h31.38348388671875v-181.44952392578125c0-4.53948974609375-3.67999267578125-8.219482421875-8.219482421875-8.219482421875Zm131.51165771484375-83.05712890625h-14.94451904296875c-4.53948974609375,0-8.219482421875,3.67999267578125-8.219482421875,8.219482421875v264.50665283203125h23.9112548828125c4.1268310546875,0,7.47222900390625-3.345458984375,7.47222900390625-7.4722900390625V74.377043776073151c0-4.53948974609375-3.67999267578125-8.219482421875-8.219482421875-8.219482421875Zm-43.33831787109375,20.40374755859375h-14.94451904296875c-4.53948974609375,0-8.219482421875,3.67999267578125-8.219482421875,8.219482421875v244.33154296875h31.38348388671875V94.780791334666901c0-4.53948974609375-3.67999267578125-8.219482421875-8.219482421875-8.219482421875ZM93.412813277943314,329.463408522166901h-14.94451904296875c-4.53948974609375,0-8.219482421875,3.67999267578125-8.219482421875,8.219482421875v1.43017578125h31.38348388671875v-1.43017578125c0-4.53948974609375-3.67999267578125-8.219482421875-8.219482421875-8.219482421875Zm44.0870361328125-17.18621826171875h-14.94451904296875c-4.53948974609375,0-8.219482421875,3.67999267578125-8.219482421875,8.219482421875v18.61639404296875h31.38348388671875v-18.61639404296875c0-4.53948974609375-3.67999267578125-8.219482421875-8.219482421875-8.219482421875Z"/><rect class="cls-46" x="198.881857692965241" width="172.33489990234375" height="65.5712890625" rx="5.977783203125" ry="5.977783203125"/><text class="cls-9" transform="translate(285.04927187494377 30.917969898321644)"><tspan class="cls-38" x="0" y="0">K</tspan><tspan class="cls-33" x="9.48974609375" y="0">w</tspan><tspan x="20.8623046875" y="0">ik </tspan></text><text class="cls-9" transform="translate(285.04927187494377 45.862305835821644)"><tspan x="0" y="0">Chec</tspan><tspan class="cls-20" x="34.087890625" y="0">k</tspan><tspan x="41.64990234375" y="0">out</tspan></text><g id="Cart">

<path id="Path_8882" class="cls-29" d="m264.184895094434069,48.287229775693049c-.065200946257391-1.383383703798245-.787066122305987-2.652473346999614-1.942786672429065-3.415567275636931-.417637800248485-.312946869314146-.978608510442427-.356054061332543-1.439156822403675-.110589914856973l-1.328566907546701.747226958832471,2.790141009036233,4.806154039291869,1.316612165541301-.747225533611527c.421217951881772-.283265245926486.653064125081073-.774792131111099.603757227801907-1.279998274018908Z"/>

<path id="Path_8883" class="cls-3" d="m260.859740899780263,45.654005444610448c1.153792228005841.764550503066857,1.875084465775217,2.032363149506637,1.942785247212669,3.414820460565352,0,1.255339124501006-.896671210421118,1.751497973386904-1.973423192952396,1.120838300415016-1.153702439170956-.764633165803389-1.874967597768773-2.032397354776549-1.942786672430884-3.414820460564442.008968906942755-1.252349013780986.892937135069587-1.754485233668674,1.973424618170611-1.120838300415926Z"/>

<path id="Path_8884" class="cls-21" d="m260.182007648642866,47.537014131361502c0-.490178627445857.292165742326688-.715095382948675.668767194632892-.499146109166759.409767737617585.296143530231348.653746805272021.769943534032791.656811027411095,1.275514533157548,0,.490178627444038-.292165742326688.712105272229564-.668767194632892.499146109166759-.407994764434989-.297662814325122-.651479280888452-.770505070555373-.656811027411095-1.275514533157548Z"/>

<path id="Path_8885" class="cls-14" d="m262.803272962061783,49.068827330395834c-.006499001372504-.450794109020535-.097490721513168-.896371914305746-.268253407879456-1.31362205482128l-3.371480957750464-1.958476915006031c-.190268241811282.29098993615662-.286041573706825.633632681056042-.2742322041031.981106920396996v.046328188316693l3.911726124522829,2.270819491212023c.001257043686564-.008668185608258.002003858757234-.017401931315362.002240445210191-.026155630098401Z"/>

<path id="Path_8886" class="cls-15" d="m250.20878827125216,58.967323780303559c-.713177037367132.05416689611593-1.428387863106764-.074422117068025-2.078034311587544-.373612766805309l-18.389968009601944-10.595658294630994c-1.30231115577044-.683025091511809-2.206618158350466-1.939809388688445-2.440438617000837-3.391657791627949l-.562660842486366-13.112312489417491,1.024446245062791-.058282930321184.56639705566522,13.112315339858469c.214213356310211,1.079190533266228.899314636475538,2.006267378630582,1.868063834028362,2.527863546936715l18.404164978341214,10.601635665636422c1.002106105985149.418167981937586,2.140799557548235.352596478584019,3.088282697146497-.177838901679934l12.25973044732018-7.069499678920693c.292164317108472-.192783754406264.464025847784796-.422931065841112.452071105781215-.618702080528237s-.195773865125375-.38855761952982-.508113590889479-.546221112554122l-19.696865522044391-11.437039535892836c-1.299662028839521-.684239378611892-2.200717214749602-1.941119165499913-2.431471669737221-3.391656366407915l-.274232204101281-7.271252340267893,1.024446423212794-.055294244819379.274232204101281,7.268262229546963c.213098834583434,1.080430474318746.898388600038743,2.00886412874388,1.868063834026543,2.530853657659463l19.69985278232889,11.439277130666596c.829244071146604.282746465991295,1.272267882908636,1.184192162070758.989521416915522,2.013436233219181-.13951189619911.409163444504884-.439962440061208.743671035927036-.83185792389304.926147602185665l-12.25972759688193,7.069499678922512c-.619027030596044.373906362041453-1.323182427897336.583764247255203-2.045902735706477.609737449241948Z"/>

<path id="Path_8887" class="cls-29" d="m246.903808861718971,58.672916167546646c-.065202371475607-1.383383703798245-.787064697085953-2.652473346999614-1.942786672429065-3.415567275635112-.415884780140914-.314591572732752-.977022241026134-.357801380562705-1.436167424293672-.110588489638758l-1.330808777975108.747225533610617,2.787898425995081,4.807647669433209,1.316610740321266-.747225533610617c.422288291802033-.283162630115839.65481001909211-.775476236520262.605253708381497-1.281491904159338Z"/>

<path id="Path_8888" class="cls-3" d="m243.575666694173378,56.03969326168226c1.156250731815817.763638362524944,1.878168640989315,2.033657248905001,1.942786672432703,3.417810571287191,0,1.252349013780986-.889945599130442,1.751497973387814-1.973423192952396,1.120838300415926-1.154879670559239-.763535746713387-1.876514673644124-2.031946985383911-1.942786672430884-3.414820460563533.009714296793391-1.251602198711225.890693126808401-1.762705900323454,1.973423192950577-1.123828411139584Z"/>

<path id="Path_8889" class="cls-21" d="m242.896438387676426,57.922701948435133c0-.490178627445857.29216502971758-.715095382951404.668766482023784-.499146109168578.410525241833966.295490779653846.654715954598942.769706947581653.656811027411095,1.275514533157548,0,.487191367164996-.292165029719399.712105272230474-.665777796522889.496158848885898-.409047289109367-.294738263704858-.653902154206662-.766146749017935-.659800425522917-1.270283977224608l.000000712610927-.00224329565026Z"/>

<path id="Path_8890" class="cls-29" d="m233.308040862014423,50.835268731287215c-.06280301427978-1.382807915080775-.781816325910768-2.652601616762695-1.935314246067719-3.417810571286282-.417038495404995-.313910317762748-.97803949151421-.358183339415518-1.439156466098211-.11357860035605l-1.330808777975108.747225533609708,2.778184485507154,4.81138744566033,1.319600138431269-.747225533609708c.424198086066099-.280996296321973.658033865827747-.773689011140959.607494866202615-1.279998274017998Z"/>

<path id="Path_8891" class="cls-3" d="m229.988864929125157,48.199057139923752c1.150817438396189.762922902283208,1.870364851069098,2.027540206379854,1.938303287874078,3.406602644352461,0,1.252349013779167-.896670497810192,1.751497973385995-1.976411522147828,1.120838300415926-1.153498098308773-.765208954522677-1.872511053636117-2.035002656206416-1.935314067915897-3.417810571286282.008966234654508-1.246374493216535.893681277852011-1.745520602385113,1.973422302189647-1.109630373482105Z"/>

<path id="Path_8892" class="cls-21" d="m229.307395108501623,50.076088455673016c0-.487191367164087.29216502971758-.712105272228655.668766838329248-.496158848887717.409582459069497.296468480300973.653931727514646.769912179202947.658305726467006,1.275514533156638,0,.490178627446767-.292165029719399.712105272231383-.67250305151174.499146109169487-.407335244064598-.299239107202084-.649657672085596-.773081867593646-.653822341908381-1.278501793438409h-.000747171376133Z"/>

<path id="Path_8893" class="cls-15" d="m224.538601775801908,15.608814949913722c-.358162027929211-1.367225276584577.162168790331634-2.813875903643748,1.309139115644939-3.639735790849954l12.235071030576364-6.911836052282524c.769919305299481-.566320672805887,1.85315746222841-.401270834456227,2.419478446801804.368649172318328.148151577412136.201414038077928.250898508809769.432539317389455.30117027975939.677466512383035l.84959478181554,2.752778877222227-.840628725312854.490180052664982-.916845193856716-2.780426177784648c-.123634949855841-.49571426944749-.625717011400411-.797344271606562-1.121431191770171-.673709410826632-.122553208178942.030565704921173-.23754847681812.085904844157994-.337899614069102.162607134434438l-11.912269747565006,6.725029624343733c-.730377389187197.534311977575271-1.067855583636629,1.455377246667922-.855573221731902,2.335079792532269l.718083712145017,2.641442147296402-1.001282239980355.583583244363581-.846607432456949-2.731109125815237Z"/>

<path id="Path_8894" class="cls-1" d="m243.453121859161001,28.872814986571939l-16.433731361654281,9.489018031871638,24.017323427688098,13.865515394030808,16.43373118350064-9.489764846941398-24.017323249534456-13.864768578961048Z"/>

<path id="Path_8895" class="cls-10" d="m243.453121859161001,28.872814986571939l-16.433731361654281,9.489018031871638,24.017323427688098,13.865515394030808,16.43373118350064-9.489764846941398-24.017323249534456-13.864768578961048Z"/>

<path id="Path_8896" class="cls-34" d="m225.387449965238375,18.362340998512082l16.264110721567704-9.501719945250443,1.800813421983548,20.012193577005746-16.432983477667221,9.489766272163251-1.631940665884031-20.000239903918555Z"/>

<path id="Path_8897" class="cls-12" d="m225.387449965238375,18.362340998512082l16.264110721567704-9.501719945250443,1.800813421983548,20.012193577005746-16.432983477667221,9.489766272163251-1.631940665884031-20.000239903918555Z"/>

<path id="Path_8898" class="cls-30" d="m241.652307902720167,8.860621053261639l1.800813421981729,20.012193577005746,24.014334564033561,13.865518244470877,3.794410598373361-16.787168541649407-29.609558584388651-17.090543279827216Zm8.395079326184714,19.245540875028382c-.721652818330767.221001677264212-1.487052752279851-.178337728539191-1.718618157217861-.896671210420209l-3.973745980632884-10.30125068187499c-.337533332633029-.630982485210552-.099645653546759-1.416120285397483.531337544271082-1.753653618030512.630981772603263-.337533332633029,1.416119572790194-.099645653549487,1.753652905423223.531336831660155.052101752915405.097398082240034.091534728806437.20105929201236.117339754882778.308460278014536l3.970009054841285,10.30125068187408c.306496325405533.687122597861162.005139341878021,1.493067178990714-.676986436066727,1.810527718776939h-.002988685500895Zm7.498408115763596,3.52242168992052c-.720009540129467.225062127906313-1.486894552901504-.17205251010455-1.718618157216042-.889944173907679l-3.960294758047894-10.301250681875899c-.339778053503323-.629777462038874-.104688080493361-1.415756141791462.525089381544603-1.755534195292967.629776036819749-.339778766112431,1.415756141790553-.104688080493361,1.755534195293876.525087956324569.052134532967102.096631314096157.091775590919497.199497963942122.11796827672697.306125768311176l3.970010480061319,10.30125068187408c.310561051703189.690872350627615.003833840723019,1.502794302759867-.685952492571232,1.81575827470715l-.0037369257916-.00149363014043Zm7.499154930836085,3.5291458759948c-.715893505926942.226310620274489-1.480959938489832-.163541098654605-1.718618157217861-.875748986692997l-3.970755869911955-10.301250681875899c-.332820131414337-.63208346735064-.090216400674763-1.414291016042625.541865641456752-1.747109722238747.632084892571584-.332818706196122,1.414291016042625-.090217825893887,1.747111147458781.541865641454933.046795660344287.08887811947352.083081751357895.182904132139811.108122859730429.280178220272319l3.970009054839466,10.301252107096843c.302423047789489.68328448147804.003768280623262,1.483017955590185-.672504120424492,1.800813421983548h-.005230555931121Z"/>

<path id="Path_8899" class="cls-27" d="m241.652307902720167,8.860621053261639l1.800813421981729,20.012193577005746,24.014334564033561,13.865518244470877,3.794410598373361-16.787168541649407-29.609558584388651-17.090543279827216Zm8.395079326184714,19.245540875028382c-.721652818330767.221001677264212-1.487052752279851-.178337728539191-1.718618157217861-.896671210420209l-3.973745980632884-10.30125068187499c-.337533332633029-.630982485210552-.099645653546759-1.416120285397483.531337544271082-1.753653618030512.630981772603263-.337533332633029,1.416119572790194-.099645653549487,1.753652905423223.531336831660155.052101752915405.097398082240034.091534728806437.20105929201236.117339754882778.308460278014536l3.970009054841285,10.30125068187408c.306496325405533.687122597861162.005139341878021,1.493067178990714-.676986436066727,1.810527718776939h-.002988685500895Zm7.498408115763596,3.52242168992052c-.720009540129467.225062127906313-1.486894552901504-.17205251010455-1.718618157216042-.889944173907679l-3.960294758047894-10.301250681875899c-.339778053503323-.629777462038874-.104688080493361-1.415756141791462.525089381544603-1.755534195292967.629776036819749-.339778766112431,1.415756141790553-.104688080493361,1.755534195293876.525087956324569.052134532967102.096631314096157.091775590919497.199497963942122.11796827672697.306125768311176l3.970010480061319,10.30125068187408c.310561051703189.690872350627615.003833840723019,1.502794302759867-.685952492571232,1.81575827470715l-.0037369257916-.00149363014043Zm7.499154930836085,3.5291458759948c-.715893505926942.226310620274489-1.480959938489832-.163541098654605-1.718618157217861-.875748986692997l-3.970755869911955-10.301250681875899c-.332820131414337-.63208346735064-.090216400674763-1.414291016042625.541865641456752-1.747109722238747.632084892571584-.332818706196122,1.414291016042625-.090217825893887,1.747111147458781.541865641454933.046795660344287.08887811947352.083081751357895.182904132139811.108122859730429.280178220272319l3.970009054839466,10.301252107096843c.302423047789489.68328448147804.003768280623262,1.483017955590185-.672504120424492,1.800813421983548h-.005230555931121Z"/>

<path id="Path_8900" class="cls-1" d="m225.387449965238375,18.361593470832304l1.631940665884031,20.000986718987406,24.017322358769889,13.864770004179263,3.794410598373361-16.784181281366727-29.44367362302728-17.081575441799941Zm9.480797276142766,19.688646993221482c-.721653530938056.221000252044178-1.48705346488714-.178337728539191-1.718618869826969-.896671210419299l-3.970755869910136-10.297515181304334c-.33583589609043-.630485796180437-.096975504629881-1.413843497087328.533509935245092-1.749679393176848s1.413843853391882-.09697621723717,1.749679749482311.533509578941448c.049565574638109.093052587681086.087568342660234.191817455515775.113162436235143.294094064445744l3.970009767450392,10.298263421595038c.311947790374688.689296057749743.009740663357661,1.501183804610264-.676986436066727,1.81874553499074l-.000000712609108-.000746815072489Zm7.499155643445192,3.526158615713939c-.720009540131286.225062127903584-1.486897403343391-.17205251010455-1.718618157217861-.889947024348658l-3.960295470657002-10.30125068187408c-.338002942491585-.630730933951781-.100700316052098-1.416045461370231.530031330506972-1.754049116472743.630730933951781-.338002229880658,1.416045461370231-.100700316052098,1.754049116472743.530032043119718.050640902823943.094497760354898.089356993255933.19491588292658.115260359485546.298951212842439l3.96702036933857,10.301252107094115c.310561051705008.690872350630343.003835265943053,1.502794302759867-.685952492569413,1.81575827470806l-.001495055359555-.000746815068851Zm7.49840954098363,3.528396210484061c-.720160613407643.226820848889474-1.488242810644806-.170912334426248-1.718618157216042-.889944173908589l-3.968516849921798-10.303493977526159c-.338002229880658-.630732359169997-.100697465612029-1.416045461370231.530034893557968-1.754047691250889s1.416045461370231-.100697465613848,1.754047691250889.530034893556149c.050639477605728.094496335133954.089355568037718.19491303248833.115258934265512.298946937184155l3.967018944122174,10.301252107095934c.311718330020085.688449477308495.009355141453852,1.499425083624374-.676985010846693,1.81575827470806l-.00224044521201.00149363014134Z"/><g id="Group_9116" class="cls-25">

<path id="Path_8901" class="cls-27" d="m225.387450009774511,18.361593114528659l1.63194066588585,20.000986718987406,24.017322358771708,13.864770004178354,3.794410598371542-16.784181281369456-29.443673623029099-17.081575441796303Zm9.480797276144585,19.688646993221482c-.721653530939875.221000252044178-1.487053464888959-.178337728538281-1.718618869826969-.896671210421118l-3.970755869911955-10.297515181302515c-.335835896088611-.630485796180437-.096975504628062-1.413843497088237.533509935246911-1.749679393178667s1.413843853393701-.096976217239899,1.749679749482311.533509578941448c.04956557463629.093052587679267.087568342658415.191817455516684.113162436235143.294094064446654l3.970009767452211,10.298263421594129c.311947790374688.689296057751562.009740663354023,1.501183804610264-.676986436068546,1.818745534988921l-.000000712609108-.000746815068851Zm7.499155643443373,3.52615861571212c-.720009540129467.225062127902675-1.486897403339754-.17205251010455-1.718618157216042-.889947024348658l-3.960295470657002-10.30125068187408c-.338002942491585-.630730933951781-.100700316053917-1.416045461370231.530031330508791-1.754049116470924.630730933949962-.338002229879748,1.416045461370231-.100700316052098,1.754049116469105.530032043117899.050640902825762.094497760353988.089356993257752.194915882924761.115260359485546.298951212843349l3.967020369342208,10.301252107093205c.310561051703189.690872350629434.003835265943053,1.502794302760776-.685952492571232,1.815758274710788l-.001495055361374-.000746815071579Zm7.498409540985449,3.528396210484061c-.720160613407643.226820848891293-1.488242810642987-.170912334423519-1.718618157216042-.889944173909498l-3.968516849919979-10.30349397752525c-.338002229880658-.630732359169997-.100697465615667-1.416045461370231.530034893556149-1.754047691250889s1.416045461370231-.100697465613848,1.754047691250889.530034893556149c.050639477605728.094496335135773.089355568037718.19491303248833.115258934267331.298946937185974l3.967018944120355,10.301252107095024c.311718330018266.688449477308495.009355141453852,1.499425083623464-.676985010848512,1.81575827470715l-.002240445210191.00149363014134Z"/></g>

<path id="Path_8902" class="cls-40" d="m254.828882831287956,35.443916796615667l16.433729758282425-9.489764846941398-3.79142048765425,16.787168541650317-16.434477998569491,9.485281106080947,3.792168727941316-16.782684800789866Z"/>

<path id="Path_8903" class="cls-27" d="m254.828882831287956,35.443916796615667l16.433729758282425-9.489764846941398-3.79142048765425,16.787168541650317-16.434477998569491,9.485281106080947,3.792168727941316-16.782684800789866Z"/></g><g id="Group_9090"><rect id="Rectangle_3629" class="cls-35" x="336.754119303822335" y="305.526978538750882" width="185.96632389073784" height="71.552420816797166" rx="6.449577785122528" ry="6.449577785122528"/><g id="Box">

<path id="Path_8866" class="cls-30" d="m382.251859161186985,315.35371659617249l-24.581758903386799,14.189071434808284,24.581758903386799,14.189071434808284,24.580953149023117-14.189071434808284-24.580953149023117-14.189071434808284Z"/>

<path id="Path_8867" class="cls-19" d="m391.873823357661422,338.183610200740986l-24.581758903386799-14.189071434808284,4.917803368694877-2.84184490403095,24.581757365689555,14.189072972509166-4.917801830997632,2.841843366330068Z"/>

<path id="Path_8868" class="cls-1" d="m357.670100257800186,329.546818340509162v22.707351282206218l24.581758903386799,14.189069897109221v-22.704125189344268l-24.581758903386799-14.192295989971171Z"/>

<path id="Path_8869" class="cls-42" d="m382.251860698887867,343.739114330480334v22.708160111969846l24.580951611322234-14.170531395899161v-22.729924706041857l-24.580951611322234,14.192295989971171Z"/>

<path id="Path_8870" class="cls-19" d="m396.791630570604866,335.341763759012792v4.434084727270601l-.520806407737837-.100774652892142-.464366697353398.677205790454536-.525640933930845-.106418008852415-.453079985436489.671562434496082-.525640933930845-.106418008852415-.45872641679307.677205790454536-.525640933930845-.106418008852415-.45872641679307.677205790454536-.532093119654746-.106418008852415-.453079985436489.671562434496082v-4.442145346327379l4.917801830997632-2.840234932997191Z"/>

<path id="Path_8871" class="cls-19" d="m382.251860698887867,343.739114330480334l.483717103725212,21.818118303814117,18.006414240742743-9.784816533761841-18.489325590100634,10.674049512153942-.00080575436732-22.707351282206218Z"/><g id="Group_9114" class="cls-26">

<path id="Path_8872" class="cls-45" d="m388.902990865192805,360.3129157612575c-.017468262587499.00002460318683-.034758152069116-.003542858890796-.050793279027857-.010480957551408-.016053579347499-.006698217592202-.030587911915063-.016570246270931-.042729584572953-.02902560955954-.011914093178348-.012566077628435-.021226399359875-.027358743654986-.027407950030465-.043535338938455-.006046233138477-.01622580165531-.008789488460025-.033491087951916-.008063694451266-.050793279027857v-2.965194518455974c-.000750397197407-.017302191075942.00199285812414-.0345736281688.008063694451266-.050793279027857.006156947481941-.016182746079721.015475404463359-.030981562904344.027407950030465-.043535338938455.012067863099219-.012744450732498.026602195666783-.022899416058863.042729584572953-.029831363923222.068384557547688-.028047632886228.146555032621109.004650002292692.174602665509155.073028409044127.006655162011157.016219650859057.010056552579044.033595651495489.010013497001637.051125422049154v2.992602468486439c-.01323651446728.063365507452545-.06992225672002.108180212100706-.134634788646508.106421084248723l.000811905163573.000012301594325Z"/>

<path id="Path_8873" class="cls-45" d="m388.516819246101477,358.239377635086385h-.049981373864284c-.067166699805966-.028558149009768-.099353818859527-.105436956779158-.072554797701741-.173329450592064l.475653409270308-1.090782284178204.519994502574264.609482443549496c.01228929177887.01196945035008.022142868067021.026208544677502.029025609557721.041923830207452.006772027150873.015801396684765.010333338432247.032789897129987.010480957553227.049981373866103-.000055357169913.034585929761306-.013999213257193.067695668318265-.038694661947375.091905204071736-.052730779982085.046555380111386-.13188538252507.046555380111386-.184616162510792,0l-.251530679648567-.291037246759515-.302323958680063.699776138890229c-.014269848306867.021779971062642-.034389104264847.039100614529161-.058045068319188.049981373864284-.024141876987414.011262108731898-.050977802926354.015456952070963-.077407776283508.012098617080483Z"/>

<path id="Path_8874" class="cls-45" d="m390.128407938015698,359.610722359268948c-.017726596048306,0-.035274818990729-.003561311281373-.05159903339154-.010480957551408-.016201198472118-.006858138303869-.030975412108091-.016705563797586-.043535338940274-.029025609557721-.01243076009996-.012473815679186-.022290487188002-.027266481707557-.029025609557721-.043535338940274-.006938098660612-.016318063606377-.010505560738238-.0338662865488-.010480957553227-.051599033393359v-2.964388764090472c-.005750994900154-.074135552447842.049686135625961-.138891139951738.123821688073804-.144642134851892s.138891139951738.049686135624142.144642134851892.123821688071985c.000535119310371.006931947864359.000535119310371.013888498915549,0,.020820446779908v2.964388764090472c.000449008159194.073907972971938-.059109156147315.134185780487314-.133017129115615.134634788646508-.000541270110261.000006150796253-.001076389420632.000006150796253-.001617659530893,0l.000811905163573.000006150796253Z"/>

<path id="Path_8875" class="cls-45" d="m389.743048224087943,357.540401099765404h-.055627805224503c-.016133539706061-.006550598469403-.030692475458636-.016441079540527-.042729584572953-.029025609557721-.037421447032102-.038325614146743-.047065896236745-.095878618731149-.024184932564822-.144309991832415l.470013128709979-1.085142003616056.525640933930845.603842162989167c.024695448690181.024209535753471.038639304777462.05731927431043.038694661947375.091905204071736.000159920713486.034862715612689-.0137962369663.068304597190945-.038694661947375.092710958439056-.012486117269873.012412307711202-.02727263250199.022272034797425-.043535338940274.029025609557721-.033011325809639.013796236964481-.070180590177188.013796236964481-.103191915986827,0-.016262706438283-.006753574760296-.031049221670401-.016613301846519-.043535338940274-.029025609557721l-.245890399088239-.291037246759515-.307970390036644.704616815881309c-.013254966856039.021349415294026-.032642278009007.038208749008845-.055627805220865.048369865133282-.023059336774168.010111909750776-.04865895257899.012928974632814-.073360552065424.008069845251157Z"/></g><g id="Group_9115" class="cls-26">

<path id="Path_8876" class="cls-45" d="m385.379101031418941,362.318736691319828c-.0503135168874-.00012301593415-.09994429533981-.011698815294949-.145115746199735-.033860135752548-.106863941608026-.071078606495576-.166748098137759-.194549699157506-.156402458113007-.322480119415559v-.363592044459438c-.003118453918432-.071170868446643.052054192346986-.131393318792107.123225060793629-.134511772712358.001919048565469-.000086111152996.003844247927191-.00012301593415.00576944729255-.00012301593415.074356981127494,0,.13463478864287.060277807517195.13463478864287.134634788646508v.363592044459438c-.008285123134556.026233147862513-.008285123134556.054385344292314,0,.080618492154827h.089487940975232c.165616351550852-.153763766336851.255491792715475-.37240613610993.245890399091877-.598195731632586v-1.516454319582408c.000061507966166-.017462111789428.003628970043792-.034733548882286.010480957549589-.050793279027857.014023816442204-.032119460291142.040509146969271-.05714705200262.073366702861676-.069331780236098.016170444487216-.006249209433008.033484937157482-.008998615550809.050793279027857-.008063694454904.071238527209061,0,.12899450808618.057749830079047.12899450808618.128988357288108v1.525329919199066c.013790086170047.319896784807497-.125383990431146.62727669836022-.374878756378166.827964892609089-.058709354361781.025488901464996-.122265536509076.037870455193115-.186246123630553.036277398850871Z"/>

<path id="Path_8877" class="cls-45" d="m383.985988637766241,361.096542635960759v-.228957255814748c.06072681567457-1.188666062627817.684091607341543-2.277301718762828,1.678503209055634-2.931334382705245.472479598178325-.398368648919131,1.178437287737324-.338287666896576,1.576805936656456.134185780487314.213414192592609.253117585196378.303787848290085.587739377268008.246813018595276.913873069914189v.09512822153556l-3.502122164307366,2.01710456658293Zm2.478248246472504-3.132883688489528c-.23424079016695.011163695984578-.461654196016752.08252523912779-.660275722577353.207195737142683-.85040299891989.558129442024438-1.415968754135974,1.458569171976706-1.549508700969454,2.466961534553775l2.976481230372883-1.71719787100119c.020076200380572-.339837667661413-.133890542245354-.666598741570851-.408745042925148-.867465308923784-.110548268829007-.057473044227663-.233355075448344-.087347463728292-.357951763900928-.087076828673162v-.002417263098323Z"/></g>

<path id="Path_8878" class="cls-24" d="m392.085852852148491,338.061066725104865l-24.589015305777139-14.189071434808284,4.917803368694877-2.836201548070676,24.589016843478021,14.189069897109221-4.917804906395759,2.836203085769739Z"/>

<path id="Path_8879" class="cls-24" d="m397.00365775854425,335.224866330308032l-.005646431356581,4.301867201724235-.520806407737837-.100774652893961-.45872641679307.671562434496082-.525640933930845-.100774652892142-.453079985436489.671562434494263-.525640933930845-.106418008850596-.464366697353398.677205790452717-.525640933930845-.106418008850596-.45872641679307.677205790452717-.525640933934483-.106418008850596-.453079985432851.671562434494263v-4.313962743404772l4.916996076630312-2.836200010371613Z"/>

<path id="Path_8880" class="cls-11" d="m396.853701335355254,335.532026352880166l-.005646431356581,4.301867201722416-.519994502574264-.100774652892142-.45872641679307.677205790454536-.525640933930845-.106418008852415-.453079985436489.671562434496082-.525640933930845-.100774652893961-.464366697353398.671562434496082-.525640933934483-.106418008852415-.458726416789432.677205790454536-.525640933934483-.106418008850596-.454697644963744.670756680128761v-4.313153913641145l4.917801830997632-2.836203085769739Z"/>

<path id="Path_8881" class="cls-6" d="m367.4984505927996,323.867964980768193l4.917803368698515-2.512110688772736,24.589015305777139,13.866592084241347-24.589015305777139-14.189071434808284-4.917803368698515,2.834590039339673Z"/></g><g id="Smart_COD_Suite" class="cls-13"><text class="cls-7" transform="translate(421.185296350041426 338.883918003180042)"><tspan x="0" y="0">Sma</tspan><tspan class="cls-43" x="32.634765625" y="0">r</tspan><tspan x="39.40625" y="0">t </tspan><tspan class="cls-37" x="48.822265625" y="0">C</tspan><tspan x="59.431640625" y="0">OD </tspan></text><text class="cls-7" transform="translate(421.185296350041426 355.007941440680042)"><tspan x="0" y="0">Sui</tspan><tspan class="cls-41" x="21.6865234375" y="0">t</tspan><tspan x="27.7646484375" y="0">e</tspan></text></g></g><g id="arrow-forward-thick-fill"><g id="Group_9165">

<path id="Path_9189-2" class="cls-5" d="m392.284858803503994,345.98838590768446c.374931038149953-.12862824736294.790166709281038-.004899301771729,1.033544507921761.307967314636699l6.497143433589372,8.348978591997366c.260501616616239.335040815096363.260501616616239.804115947312312,0,1.139156762408675l-6.494724632790167,8.353008709313144c-.314945393478411.404287253028087-.897999401367997.476712883999426-1.302286654397903.161767490522834-.225621986312035-.175762090681019-.357587329195667-.445746698087532-.357673440350482-.731749517759454v-3.70205688596252c-4.991166996158427.103999208055029-7.388797519328364,1.048055775003377-8.592449998079246,2.080794528559636-.928975197897671.872215261664678-1.491311400430277,2.065197645864828-1.57289095456872,3.336850257372134l-.056433944013406.311191869797767c-.094488538677979.503697966758409-.57941369731634.835427346688448-1.0831110874351.74093880800865-.417398060588312-.078299641803824-.728373883655877-.429963753791526-.755018558258598-.853805927183203-.161239483069949-2.550001902904114.080619645428669-6.244803924175358,1.880858076994627-9.334958028091933,1.747029234924412-3.000665394090902,4.894423421643296-5.307194929851903,10.179046465360443-5.548248111772409v-3.731887096611899c-.000513591523486-.395775319266249.250052950745157-.748316304207037.623996786027419-.877948765235487Z"/></g></g><g id="Group_9118"><rect id="Rectangle_3629-2" class="cls-23" y="138.141327991174876" width="153.181234390169266" height="72.480876760226238" rx="5.977804268884938" ry="5.977804268884938"/><g id="KwikChat" class="cls-13"><text class="cls-9" transform="translate(76.590203576603926 179.986115650274769)"><tspan class="cls-38" x="0" y="0">K</tspan><tspan class="cls-33" x="9.48974609375" y="0">w</tspan><tspan x="20.8623046875" y="0">ikChat</tspan></text></g></g><g id="Smartphone">

<path id="Path_8904" class="cls-1" d="m53.443074825169788,149.221168513341581h-.195027050055614v1.238152757650823h.195773865125375l-.00074681506976-1.238152757650823Z"/>

<path id="Path_8905" class="cls-1" d="m53.443074201635682,148.215402888806238h-.188300013543085c-.002060867541331-1.50065228677704-1.218502898720544-2.716426023578606-2.719156521640798-2.717659217105393v-.1883008374989c1.603625739015115.003694849105159,2.902935738613451,1.302335384504659,2.907456535183883,2.905960054604293Z"/>

<path id="Path_8906" class="cls-1" d="m50.527400473772104,145.986429136654806h-25.959363641352866c-1.231853554247209,0-2.230468191113687.998614496116716-2.230468191113687,2.230468139439836h.000000051672941v52.9461584720666c-.000000323710992,1.231851505493978.99861396166034,2.230468673897121,2.230467426830728,2.230468673897121h25.959364353962883c1.231854355933137,0,2.230468673898031-.998611467524825,2.230468673898031-2.230468673897121h0v-52.9461584720666c0-1.231853465171298-.998614317964893-2.230468139439836-2.230468673898031-2.230468228515747v.000000089075911Z"/>

<path id="Path_8907" class="cls-8" d="m51.746124281530683,201.163055146896113v-52.947652102206121c0-.756978311334024-.613434468886226-1.370746103453712-1.370411354999305-1.371158882680902h-25.960109743813518c-.756102602965257.001648266468692-1.368171711474133.615054409114236-1.368169929950454,1.371158882680902v52.947652102206121c.000000356305463.757270481351952.613888935786235,1.371158170069975,1.371158793604081,1.371158170069975h25.957120880159891c.75697688611308-.000410463244407,1.370411354999305-.614178433517736,1.370411354999305-1.371158170069975Z"/>

<path id="Path_8909" class="cls-1" d="m36.211305733500012,146.688073942822484c-.000354879680344.70733559668588.57276582760187,1.281032270840115,1.280100889830464,1.281387328672281.70733648744681.000355235984898,1.281032983448313-.572765649450957,1.281387863128657-1.280101246135018v-.001286082537263h-2.561488752959121Z"/><g id="Group_9120">

<path id="Path_8910" class="cls-17" d="m57.503497673601487,149.283188102223903h-26.122258581070128c-2.217403685825047.007788112503476-4.013032158904934,1.803416585584273-4.020820627712965,4.02082027140932v2.682539779680155c.007788112503476,2.217403685825047,1.803416941887917,4.013032158904025,4.020820627712965,4.020820984016609h26.122258581070128l4.020820984017519,2.385143481420528v-9.099712172052023c-.013921545052654-2.213025411214403-1.807765643190578-4.001869838997663-4.020820984017519-4.00961234447459Z"/>

<path id="Path_8911" class="cls-3" d="m56.774950711762358,153.125421944273512h-24.680857750407085v.672502695204457h24.680857750407085v-.672502695204457Z"/>

<path id="Path_8912" class="cls-3" d="m56.774952315135124,155.495621285576817h-19.932241251584855v.672502695206276h19.932241251584855v-.672502695206276Z"/></g><g id="Group_9119">

<path id="Path_8913" class="cls-1" d="m22.569208921946483,164.495206079855961h21.926586668262644c1.862742064040503.004104632447707,3.372118030912134,1.51247866993981,3.377459753972289,3.375216458322029v2.249147601974983c-.005336022181837,1.861866979204933-1.513349479116187,3.369883286579352-3.375216458322029,3.375219308760279h-21.928829963912904l-3.375217883542064,2.001071027971193v-7.638139495780706c.011073599986958-1.857413167956111,1.517775498583433-3.358444474069984,3.375217883542064-3.362514901247778Z"/>

<path id="Path_8914" class="cls-4" d="m43.897268205728324,167.717988175866594h-20.717575732077421v.561912780349303h20.717575732077421v-.561912780349303Z"/>

<path id="Path_8915" class="cls-4" d="m32.791254449773987,169.710093147335101h-9.611561976123085v.561912780347484h9.611561976123085v-.561912780347484Z"/>

<path id="Path_8916" class="cls-4" d="m38.195936942461231,169.710093147335101h-3.90724238365965v.561912780347484h3.90724238365965v-.561912780347484Z"/></g><g id="Group_9121">

<path id="Path_8917" class="cls-17" d="m57.503496248381452,178.983160480204788h-26.124498313671211c-2.217985888031762.007379787088212-4.014186586779942,1.803581198446409-4.021567799088189,4.021567799089098v2.680296484028077c.004931259815748,2.219004207436228,1.802562879042853,4.016636539274259,4.021567799088189,4.021567799089098h26.124498313671211l4.021567799090008,2.383648426059153v-9.102700857552918c-.015554846715531-2.212148901158798-1.80937899178025-3.999303018497812-4.021567799090008-4.006622946362768v.00224329565026Z"/>

<path id="Path_8918" class="cls-3" d="m56.774952493286946,182.821658821681012h-24.683101046057345v.672504120426311h24.683101046057345v-.672504120426311Z"/>

<path id="Path_8919" class="cls-3" d="m56.774951780677839,185.197089431528184h-19.933734881725286v.672504120424492h19.933734881725286v-.672504120424492Z"/></g>

<path id="Path_8920" class="cls-1" d="m29.233713389233344,191.226450663135438h7.801781785026833c1.702233832695129.006148397354991,3.0806420948702,1.384558084748278,3.086789067005157,3.086789067005157v2.059351107851398c-.006145546914922,1.702236683135197-1.384553809089994,3.080646370528484-3.086789067005157,3.086791917443406h-7.801781785026833l-3.086041539324469,1.82696620164279v-6.973109226937595c.004924490022859-1.702744061312842,1.384046430912349-3.081863508066817,3.086788354395139-3.086789067005157h-.00074681507067Z"/>

<path id="Path_8921" class="cls-3" d="m30.797656026318691,195.342168647149265c-.000000712610017.497692385175469-.403461140886975.901154951281569-.901154951282479.901154951281569s-.901153526062444-.4034625661061-.901152813452427-.901154951281569c0-.497692385177288.403460428276958-.901154951283388.901153526062444-.901154951283388.495167608653901.006048631983504.895107744519009.405988055237685.901154238672461.901154951283388Z"/>

<path id="Path_8922" class="cls-3" d="m32.620139199709229,195.525239529980354c.503883539117851,0,.9123628782163-.408479339099358.9123628782163-.9123628782163,0-.50388353911876-.408478626488431-.9123628782163-.912362165606282-.9123628782163-.503884251727868,0-.91236287821539.408479339097539-.91236287821539.9123628782163,0,.503883539116941.408477913878414.9123628782163.912362165605373.9123628782163h0Z"/>

<path id="Path_8923" class="cls-3" d="m36.268095122754858,196.434613366390295c-.000188128987247.497692385175469-.403800343151488.901001027565144-.901494153546082.900812898576987-.497692385176379-.000188128986338-.901001027565144-.403798917932363-.900814323797931-.901491303107832.000188128987247-.497692385175469.403800343151488-.901001027565144.901494153546992-.900812898576987.238966570320372.000085513174781.468113377598456.095090651706414.637043231558891.264110294501734.168978311427054.169070950702007.263860881073015.398348878183242.26377109223813.637381008606098Z"/></g>

<path class="cls-22" d="m504.572092230978342,110.053474870297578l-13.413369302792489-17.600702928755709c-86.889607749832066,122.074189894322444-254.297316294248958,216.424798135357378-417.27671998479309,245.975523568974495-.743279231071028.150464711598033-1.487949897054023.310479726456833-2.230786398835335.457845333025034.157485133199771-.043766952680016.314717278233729-.090822751515589.472139164392502-.13471619827942-.189551383213256.03383716717326-.379292507550417.070899933460169-.568843890763674.104547359509525.889379896811988-.228068831453129,1.778064076166629-.470557988355722,2.667254231853804-.703117359753378,153.73698702998081-43.504730446687972,302.900706987096783-155.999396949539005,382.700827367185411-269.9582324618641l-25.15360137117932-6.666048427266105,80.756099411539253-35.998761309019756-7.952999226607062,84.523662423429414Z"/></g></svg>